<?xml version="1.0" encoding="UTF-8" standalone="no"?>
<svg
   xmlns:dc="http://purl.org/dc/elements/1.1/"
   xmlns:cc="http://creativecommons.org/ns#"
   xmlns:rdf="http://www.w3.org/1999/02/22-rdf-syntax-ns#"
   xmlns:svg="http://www.w3.org/2000/svg"
   xmlns="http://www.w3.org/2000/svg"
   xmlns:xlink="http://www.w3.org/1999/xlink"
   xmlns:sodipodi="http://sodipodi.sourceforge.net/DTD/sodipodi-0.dtd"
   xmlns:inkscape="http://www.inkscape.org/namespaces/inkscape"
   class="rocketManSVG"
   viewBox="0 0 600 600"
   preserveAspectRatio="xMidYMid meet"
   width="1024px"
   height="1024px"
   version="1.1"
   id="svg945"
   sodipodi:docname="rocketman.svg"
   inkscape:version="1.0.1 (c497b03c, 2020-09-10)">
  <metadata
     id="metadata949">
    <rdf:RDF>
      <cc:Work
         rdf:about="">
        <dc:format>image/svg+xml</dc:format>
        <dc:type
           rdf:resource="http://purl.org/dc/dcmitype/StillImage" />
      </cc:Work>
    </rdf:RDF>
  </metadata>
  <sodipodi:namedview
     pagecolor="#ffffff"
     bordercolor="#666666"
     borderopacity="1"
     objecttolerance="10"
     gridtolerance="10"
     guidetolerance="10"
     inkscape:pageopacity="0"
     inkscape:pageshadow="2"
     inkscape:window-width="1792"
     inkscape:window-height="1120"
     id="namedview947"
     showgrid="false"
     inkscape:zoom="0.6953125"
     inkscape:cx="512"
     inkscape:cy="512"
     inkscape:window-x="0"
     inkscape:window-y="0"
     inkscape:window-maximized="0"
     inkscape:current-layer="svg945" />
  <defs
     id="defs867">
    <path
       id="rocketClip"
       d="M300,465.7L300,465.7c-13.8,0-25-11.3-25-25V249.4c0-13.7,11.3-25,25-25h0c13.7,0,25,11.2,25,25v191.3    C325,454.5,313.8,465.7,300,465.7z" />
    <circle
       id="bubbble"
       cx="0"
       cy="0"
       r="8" />
    <clipPath
       id="rainbowClip">
      <use
         xlink:href="#rocketClip"
         overflow="visible"
         id="use835" />
    </clipPath>
    <symbol
       id="badge">
      <circle
         fill="#1668B2"
         stroke="#EF3D43"
         stroke-width="1.4389"
         stroke-miterlimit="10"
         cx="319.6"
         cy="288.9"
         r="8.7"
         id="circle838" />
      <g
         id="g848">
        <g
           id="g842">
          <path
             fill="#FFFFFF"
             d="M319.6,294.7L319.6,294.7c-1.7,0-2.8-0.9-2.6-1.9c0.5-2.6,0.9-5.2,1.4-7.8c0.2-1,0.4-2.8,1.2-2.8      c0,0,0,0,0,0c0.8,0,1,1.8,1.2,2.8c0.5,2.6,0.9,5.2,1.4,7.8C322.5,293.8,321.3,294.6,319.6,294.7z"
             id="path840" />
        </g>
        <path
           fill="#FFFFFF"
           d="M316.4,294.2L316.4,294.2c-0.4,0-0.8-0.3-0.8-0.8v-3.3c0-0.4,0.3-0.8,0.8-0.8l0,0c0.4,0,0.8,0.3,0.8,0.8     v3.3C317.2,293.9,316.9,294.2,316.4,294.2z"
           id="path844" />
        <path
           fill="#FFFFFF"
           d="M322.8,294.2L322.8,294.2c-0.4,0-0.7-0.3-0.7-0.7v-3.3c0-0.4,0.3-0.7,0.7-0.7l0,0c0.4,0,0.7,0.3,0.7,0.7     v3.3C323.6,293.9,323.2,294.2,322.8,294.2z"
           id="path846" />
      </g>
      <g
         id="g856">
        <circle
           fill="#FFFFFF"
           cx="314"
           cy="288.3"
           r="0.7"
           id="circle850" />
        <ellipse
           fill="#FFFFFF"
           cx="314"
           cy="288.3"
           rx="0.1"
           ry="1.2"
           id="ellipse852" />
        <ellipse
           fill="#FFFFFF"
           cx="314"
           cy="288.3"
           rx="1.3"
           ry="0.1"
           id="ellipse854" />
      </g>
      <g
         id="g864">
        <circle
           fill="#FFFFFF"
           cx="324.8"
           cy="286.4"
           r="0.7"
           id="circle858" />
        <ellipse
           fill="#FFFFFF"
           cx="324.8"
           cy="286.4"
           rx="0.1"
           ry="1.2"
           id="ellipse860" />
        <ellipse
           fill="#FFFFFF"
           cx="324.8"
           cy="286.4"
           rx="1.3"
           ry="0.1"
           id="ellipse862" />
      </g>
    </symbol>
  </defs>
  <rect
     x="275"
     y="263.29999"
     clip-path="url(#rainbowClip)"
     fill="#cc583f"
     width="10"
     height="212.7"
     id="rect869"
     transform="matrix(1.5494782,0,0,1.3582656,-167.35333,-180.14104)" />
  <rect
     x="285"
     y="263.29999"
     clip-path="url(#rainbowClip)"
     fill="#ecb447"
     width="10"
     height="212.7"
     id="rect871"
     transform="matrix(1.5494782,0,0,1.3582656,-167.35333,-180.14104)" />
  <rect
     x="295"
     y="263.29999"
     clip-path="url(#rainbowClip)"
     fill="#75c095"
     width="10"
     height="212.7"
     id="rect873"
     transform="matrix(1.5494782,0,0,1.3582656,-167.35333,-180.14104)" />
  <rect
     x="305"
     y="263.29999"
     clip-path="url(#rainbowClip)"
     fill="#5991aa"
     width="10"
     height="212.7"
     id="rect875"
     transform="matrix(1.5494782,0,0,1.3582656,-167.35333,-180.14104)" />
  <rect
     x="315"
     y="263.29999"
     clip-path="url(#rainbowClip)"
     fill="#7d6aad"
     width="10"
     height="212.7"
     id="rect877"
     transform="matrix(1.5494782,0,0,1.3582656,-167.35333,-180.14104)" />
  <g
     class="astronaut"
     id="g943"
     transform="matrix(1.5494782,0,0,1.3582656,-167.35333,-180.14104)">
    <g
       class="pulseSVG"
       opacity="0.2"
       stroke="#ededed"
       id="g885">
      <path
         class="pulse"
         fill="none"
         stroke-width="3"
         stroke-linejoin="round"
         stroke-miterlimit="10"
         d="m 289.9,188.7 c 5.2,-5.2 13.7,-5.2 18.9,0"
         id="path879" />
      <path
         class="pulse"
         fill="none"
         stroke-width="3"
         stroke-linejoin="round"
         stroke-miterlimit="10"
         d="m 285.6,184.5 c 7.6,-7.6 19.8,-7.6 27.4,0"
         id="path881" />
      <path
         class="pulse"
         fill="none"
         stroke-width="3"
         stroke-linejoin="round"
         stroke-miterlimit="10"
         d="m 281.4,180.3 c 9.9,-9.9 26,-9.9 35.9,0"
         id="path883" />
    </g>
    <g
       id="g899">
      <g
         id="g895">
        <g
           id="g893">
          <path
             fill="#cccccc"
             d="m 265,320.7 c 0,0 0.1,0 0.1,0 h 0.2 c 0,0 0,0 0,0 h 0.2 c 0,0 0,0 0,0 v -16.1 h -21.4 c 0.9,3.7 2.8,6.9 5.6,9.8 4.3,4.2 9.4,6.3 15.3,6.3 m 69.9,0 c 0,0 0.1,0 0.1,0 5.9,0 11,-2.1 15.2,-6.3 2.9,-2.9 4.7,-6.1 5.6,-9.8 h -21.4 v 16.1 h 0.2 c 0,0 0,0 0,0 v 0 0 h 0.3 m -63.1,-96.3 c -4.3,0.9 -8.1,2.9 -11.4,6.2 -4.5,4.5 -6.7,9.9 -6.7,16.2 v 13.6 c 3.3,-2.1 7.1,-3.2 11.3,-3.2 v 0 c 0.9,0 1.7,0 2.6,0.1 -1.5,-3.9 -2.3,-8.2 -2.3,-12.7 0,-7.6 2.2,-14.3 6.5,-20.2 m 74.5,36 v -13.6 c 0,-6.3 -2.2,-11.7 -6.7,-16.2 -3,-3 -6.5,-5.1 -10.4,-6 l -0.2,0.8 c 3.9,5.6 5.8,12 5.8,19.2 0,4.2 -0.7,8.1 -2,11.8 l 0.1,0.8 c 0.7,-0.1 1.4,-0.1 2.2,-0.1 v 0 c 4.1,0.1 7.8,1.2 11.2,3.3 z"
             id="path887" />
          <path
             fill="#ffffff"
             d="m 299.9,210.1 c 0,0 -0.1,0 -0.1,0 -9.5,0 -17.6,3.4 -24.3,10.1 -1.3,1.3 -2.5,2.7 -3.6,4.2 -4.3,5.9 -6.5,12.6 -6.5,20.3 0,4.6 0.8,8.8 2.3,12.7 0.2,0.6 0.5,1.2 0.8,1.8 1.7,3.6 4,6.9 7.1,9.9 3.3,3.3 6.8,5.7 10.7,7.4 0.1,0 0.2,0.1 0.2,0.1 0.8,0.3 1.6,0.7 2.5,0.9 3.4,1.1 7.1,1.7 11,1.7 9.5,0 17.7,-3.4 24.4,-10.1 3.6,-3.6 6.2,-7.5 7.9,-11.8 0.1,-0.3 0.2,-0.6 0.3,-0.9 1.3,-3.6 1.9,-7.6 1.9,-11.7 0,-7.2 -1.9,-13.5 -5.7,-19.1 l -0.2,-0.2 c 0,0 0,-0.1 -0.1,-0.1 v 0 l -0.1,-0.1 -0.1,-0.1 c 0,0 0,0 0,0 l -0.1,-0.1 c 0,-0.1 -0.1,-0.1 -0.1,-0.2 0,0 0,-0.1 -0.1,-0.1 -1.1,-1.5 -2.3,-2.9 -3.7,-4.3 -6.8,-6.9 -14.9,-10.3 -24.4,-10.3 m 50.2,53.4 c -1.2,-1.2 -2.5,-2.3 -3.9,-3.1 -3.3,-2.1 -7.1,-3.2 -11.3,-3.2 v 0 c -0.7,0 -1.5,0 -2.2,0.1 -0.1,0 -0.2,0 -0.3,0 0,0 -0.1,0 -0.1,0 l -0.3,-0.1 c -1.7,4.3 -4.3,8.3 -7.9,11.8 -6.7,6.7 -14.9,10.1 -24.4,10.1 -3.9,0 -7.6,-0.6 -11,-1.7 -0.8,-0.3 -1.7,-0.6 -2.5,-0.9 -0.1,0 -0.2,-0.1 -0.2,-0.1 -3.9,-1.7 -7.5,-4.2 -10.7,-7.4 -3,-3 -5.4,-6.3 -7.1,-9.9 -0.3,-0.6 -0.5,-1.2 -0.8,-1.8 -0.8,-0.1 -1.7,-0.1 -2.6,-0.1 v 0 c -4.2,0 -8,1.1 -11.3,3.2 -1.4,0.9 -2.7,1.9 -3.9,3.1 -4.2,4.2 -6.3,9.2 -6.3,15.2 v 20.6 c 0,1.9 0.2,3.7 0.6,5.4 h 21.4 v -22.6 22.6 16.1 17.2 c 0.6,3.3 2.2,6.2 4.7,8.7 3.3,3.4 7.3,5 12,5 4.7,0 8.9,-1.8 12.7,-5.3 2.8,-2.6 4.5,-5.5 5,-8.7 v -15.9 h -12.7 13 13 -13 v 15.9 c 0.5,3.2 2.2,6.1 5,8.7 3.8,3.5 8,5.3 12.7,5.3 4.7,0 8.7,-1.7 12,-5 2.5,-2.5 4,-5.4 4.7,-8.7 V 320.7 304.6 282 304.6 h 21.4 c 0.4,-1.7 0.6,-3.5 0.6,-5.4 v -20.6 c 0,-5.8 -2.1,-10.9 -6.3,-15.1 M 300,311.1 V 281 Z"
             id="path889" />
          <path
             fill="#2d2d2d"
             d="m 299.7,195.5 c -1.1,0 -2,0.4 -2.7,1.1 -0.7,0.7 -1.1,1.6 -1.1,2.7 0,1.1 0.4,2 1.1,2.7 0.7,0.7 1.6,1.1 2.7,1.1 1.1,0 2,-0.4 2.7,-1.1 0.7,-0.7 1.1,-1.6 1.1,-2.7 0,-1.1 -0.4,-2 -1.1,-2.7 -0.7,-0.8 -1.6,-1.1 -2.7,-1.1 z"
             id="path891" />
        </g>
      </g>
      <path
         fill="none"
         stroke="#2d2d2d"
         stroke-width="4"
         stroke-linecap="round"
         stroke-linejoin="round"
         d="m 355.8,304.6 c 0.4,-1.7 0.6,-3.5 0.6,-5.4 v -20.6 c 0,-5.9 -2.1,-11 -6.3,-15.2 -1.2,-1.2 -2.5,-2.3 -3.9,-3.1 -3.3,-2.1 -7.1,-3.2 -11.3,-3.2 v 0 c -0.7,0 -1.5,0 -2.2,0.1 -0.1,0 -0.2,0 -0.3,0 0,0 -0.1,0 -0.1,0 m -0.2,0.1 c -1.7,4.3 -4.3,8.3 -7.9,11.8 -6.7,6.7 -14.9,10.1 -24.4,10.1 -3.9,0 -7.6,-0.6 -11,-1.7 -0.8,-0.3 -1.7,-0.6 -2.5,-0.9 -0.1,0 -0.2,-0.1 -0.2,-0.1 -3.9,-1.7 -7.5,-4.2 -10.7,-7.4 -3,-3 -5.4,-6.3 -7.1,-9.9 -0.3,-0.6 -0.5,-1.2 -0.8,-1.8 -0.8,-0.1 -1.7,-0.1 -2.6,-0.1 v 0 c -4.2,0 -8,1.1 -11.3,3.2 -1.4,0.9 -2.7,1.9 -3.9,3.1 -4.2,4.2 -6.3,9.2 -6.3,15.2 v 20.6 c 0,1.9 0.2,3.7 0.6,5.4 h 21.4 v -22.6 m 80.9,-21.8 v -13.6 c 0,-6.3 -2.2,-11.7 -6.7,-16.2 -3,-3 -6.5,-5.1 -10.4,-6 m -0.3,0.8 c 3.9,5.6 5.8,12 5.8,19.2 0,4.2 -0.7,8.1 -2,11.8 m -33,-53.3 c -1.1,0 -2,-0.4 -2.7,-1.1 -0.7,-0.7 -1.1,-1.6 -1.1,-2.7 0,-1.1 0.4,-2 1.1,-2.7 0.7,-0.7 1.6,-1.1 2.7,-1.1 1.1,0 2,0.4 2.7,1.1 0.7,0.7 1.1,1.6 1.1,2.7 0,1.1 -0.4,2 -1.1,2.7 -0.7,0.7 -1.6,1.1 -2.7,1.1 v 7.1 c 0,0 0.1,0 0.1,0 9.5,0 17.7,3.4 24.4,10.1 1.4,1.4 2.6,2.8 3.7,4.3 0,0 0,0.1 0.1,0.1 0,0.1 0.1,0.1 0.1,0.2 l 0.1,0.1 c 0,0 0,0 0,0 0,0 0.1,0.1 0.1,0.1 0,0 0,0 0,0 0,0 0,0 0,0 l 0.1,0.1 v 0 c 0,0 0,0 0.1,0.1 l 0.2,0.2 c 3.8,5.6 5.7,12 5.7,19.1 0,4.2 -0.6,8.1 -1.9,11.7 -0.1,0.3 -0.2,0.6 -0.3,0.9 m -3,-32.6 v 0 c -0.1,0 -0.1,0 0,0 -0.1,0 -0.1,0 0,0 -0.3,-0.1 -0.6,-0.1 -0.8,-0.2 0,0 -0.1,0 -0.2,0 0,0 0,0.1 0.1,0.1 0,0 0,0.1 0,0.1 0.1,0.1 0.2,0.3 0.3,0.4 0,0 0,0 0,0 v 0 c 0.1,0.1 0.2,0.3 0.3,0.4 0,0 0,0 0,0 m -57.1,-1 c 1.1,-1.4 2.3,-2.8 3.6,-4.2 6.7,-6.7 14.8,-10.1 24.3,-10.1 m -46,50.3 v -13.6 c 0,-6.3 2.2,-11.7 6.7,-16.2 3.3,-3.3 7.1,-5.4 11.4,-6.2 -4.3,5.9 -6.5,12.6 -6.5,20.3 0,4.6 0.8,8.8 2.3,12.7 m 65.1,-0.9 c 0,0 0,0 0,0 v 0 c 0,0 0,0.1 0,0.1 0,0 0,0 0,0.1 l -0.2,0.5 c 0,0.1 -0.1,0.1 -0.1,0.2 m 2.3,63.3 h 0.2 c 0,0 0.1,0 0.1,0 5.9,0 11,-2.1 15.2,-6.3 2.9,-2.9 4.7,-6.1 5.6,-9.8 h -21.4 v 16.1 h 0.2 m 0,0 v 0 m -47.3,1.1 h 12.7 13 m -13,16 c 0.5,3.2 2.2,6.1 5,8.7 3.8,3.5 8,5.3 12.7,5.3 4.7,0 8.7,-1.7 12,-5 2.5,-2.5 4,-5.4 4.7,-8.7 v -17.3 m -68.8,-0.1 V 338 c 0.6,3.3 2.2,6.2 4.7,8.7 3.3,3.4 7.3,5 12,5 4.7,0 8.9,-1.8 12.7,-5.3 2.8,-2.6 4.5,-5.5 5,-8.7 v -15.9 m -34.4,-1.1 c 0,0 0,0 0,0 h -0.3 c 0,0 0,0 0,0 h -0.2 c 0,0 -0.1,0 -0.1,0 -5.9,0 -11,-2.1 -15.2,-6.3 -2.9,-2.9 -4.7,-6.1 -5.6,-9.8 m 21.4,0 v 16.1 m 68.8,-38.6 v 22.6 M 300,311.1 V 281"
         id="path897" />
    </g>
    <g
       id="g903">
      <path
         fill="#7592a0"
         d="m 324.5,261.6 c 6.8,-4.3 10.2,-9.5 10.2,-15.5 0,-5.1 -2.4,-9.6 -7.2,-13.4 H 272 c -4.8,3.8 -7.3,8.3 -7.3,13.4 0,6.1 3.4,11.2 10.2,15.5 6.8,4.3 15.1,6.4 24.7,6.4 9.8,0 18,-2.1 24.9,-6.4 z"
         id="path901" />
    </g>
    <path
       fill="none"
       stroke="#2d2d2d"
       stroke-width="4"
       stroke-linecap="round"
       stroke-linejoin="round"
       d="m 334.7,246.1 c 0,6.1 -3.4,11.2 -10.2,15.5 -6.8,4.3 -15.1,6.4 -24.7,6.4 -9.7,0 -17.9,-2.1 -24.7,-6.4 -6.8,-4.3 -10.2,-9.5 -10.2,-15.5 0,-5.1 2.4,-9.6 7.3,-13.4 h 55.5 c 4.6,3.8 7,8.3 7,13.4 z"
       id="path905" />
    <path
       fill="none"
       stroke="#e6e6e6"
       stroke-width="4"
       stroke-linecap="round"
       stroke-linejoin="round"
       d="m 323.5,240.6 c 2.4,3.5 2.4,7.8 0,12.7 m -47.7,-12.7 c -2.4,3.5 -2.4,7.8 0,12.7"
       id="path907" />
    <g
       class="jetBubbles"
       id="g941">
      <g
         id="greyJets"
         fill="#2d2d2d">
        <circle
           class="jetBubble"
           cx="289"
           cy="489"
           r="23"
           id="circle909" />
        <circle
           class="jetBubble"
           cx="270"
           cy="470"
           r="20"
           id="circle911" />
        <circle
           class="jetBubble"
           cx="319"
           cy="483"
           r="21"
           id="circle913" />
      </g>
      <g
         id="colorJets"
         stroke-width="0"
         stroke="#3d3d3d">
        <circle
           class="jetBubble"
           fill="#ecb447"
           cx="312"
           cy="449"
           r="8"
           id="circle916" />
        <circle
           class="jetBubble"
           fill="#7d6aad"
           cx="320"
           cy="480"
           r="10"
           id="circle918" />
        <circle
           class="jetBubble"
           fill="#7d6aad"
           cx="290"
           cy="460"
           r="10"
           id="circle920" />
        <circle
           class="jetBubble"
           fill="#ecb447"
           cx="329"
           cy="453"
           r="11"
           id="circle922" />
        <circle
           class="jetBubble"
           fill="#cc583f"
           cx="286"
           cy="463"
           r="7"
           id="circle924" />
        <circle
           class="jetBubble"
           fill="#ecb447"
           cx="289"
           cy="469"
           r="24"
           id="circle926" />
        <circle
           class="jetBubble"
           fill="#7d6aad"
           cx="260"
           cy="450"
           r="20"
           id="circle928" />
        <circle
           class="jetBubble"
           fill="#5991aa"
           cx="319"
           cy="463"
           r="10"
           id="circle930" />
        <circle
           class="jetBubble"
           fill="#cc583f"
           cx="290"
           cy="463"
           r="18"
           id="circle932" />
        <circle
           class="jetBubble"
           fill="#75c095"
           cx="312"
           cy="443"
           r="21"
           id="circle934" />
        <circle
           class="jetBubble"
           fill="#5991aa"
           cx="275"
           cy="443.39999"
           r="12"
           id="circle936" />
      </g>
      <use
         xlink:href="#badge"
         x="0"
         y="0"
         id="use939"
         width="100%"
         height="100%" />
    </g>
  </g>
</svg>
